<?xml version="1.0" encoding="UTF-8"?>
<svg xmlns="http://www.w3.org/2000/svg" xmlns:xlink="http://www.w3.org/1999/xlink" width="1200" height="330" viewBox="0 0 1200 330" role="img" aria-label="Profile facts">
  <defs>
    <linearGradient id="bg" x1="0" y1="0" x2="1" y2="1"><stop offset="0" stop-color="#05070D"/><stop offset="1" stop-color="#0B1220"/></linearGradient>
    <linearGradient id="shine" x1="0" y1="0" x2="1" y2="0"><stop offset="0" stop-color="#FFFFFF" stop-opacity="0"/><stop offset="0.5" stop-color="#FFFFFF" stop-opacity="0.06"/><stop offset="1" stop-color="#FFFFFF" stop-opacity="0"/></linearGradient>
    <clipPath id="frame"><rect width="1200" height="330" rx="22"/></clipPath>
    <symbol id="i-pin" viewBox="0 0 24 24"><path d="M12 21s-6-5.3-6-10a6 6 0 0 1 12 0c0 4.7-6 10-6 10z"/><circle cx="12" cy="11" r="2.2"/></symbol>
    <symbol id="i-build" viewBox="0 0 24 24"><rect x="4" y="3" width="16" height="18" rx="1.5"/><path d="M8 7h2M14 7h2M8 11h2M14 11h2M8 15h2M14 15h2M10 21v-3h4v3"/></symbol>
    <symbol id="i-brief" viewBox="0 0 24 24"><rect x="3" y="7" width="18" height="13" rx="2"/><path d="M8 7V5.5A1.5 1.5 0 0 1 9.5 4h5A1.5 1.5 0 0 1 16 5.5V7M3 12h18"/></symbol>
    <symbol id="i-grad" viewBox="0 0 24 24"><path d="M2 9l10-5 10 5-10 5z"/><path d="M6 11.5v4.5c0 1.5 3 3 6 3s6-1.5 6-3v-4.5M22 9v6"/></symbol>
  </defs>
  <g clip-path="url(#frame)" font-family="Segoe UI, Helvetica, Arial, sans-serif">
    <rect width="1200" height="330" fill="url(#bg)"/>
    <rect width="1200" height="330" fill="none" stroke="#243049" stroke-width="2"/>
    <rect x="-220" y="0" width="200" height="330" fill="url(#shine)"><animate attributeName="x" values="-220;1220" dur="5s" repeatCount="indefinite"/></rect>

    <g opacity="0"><animate attributeName="opacity" from="0" to="1" dur="0.7s" begin="0.1s" fill="freeze"/>
      <rect x="40" y="24" width="250" height="124" rx="16" fill="#0B1220" stroke="#243049"/>
      <circle cx="76" cy="64" r="20" fill="#070B14" stroke="#E8C872"/>
      <g fill="none" stroke="#E8C872" stroke-width="1.8" stroke-linecap="round" stroke-linejoin="round" stroke-dasharray="90" stroke-dashoffset="90"><animate attributeName="stroke-dashoffset" from="90" to="0" dur="1.4s" begin="0.3s" fill="freeze"/><use xlink:href="#i-pin" x="65" y="53" width="22" height="22"/></g>
      <text x="108" y="60" fill="#E8C872" font-size="10" letter-spacing="2.5" font-weight="700">LOCATION</text>
      <text x="108" y="82" fill="#F8FAFC" font-size="15">Dhaka, Bangladesh</text>
      <text x="64" y="124" fill="#8B9BB4" font-size="12">Remote-ready  |  Visa-friendly moves</text>
    </g>

    <g opacity="0"><animate attributeName="opacity" from="0" to="1" dur="0.7s" begin="0.3s" fill="freeze"/>
      <rect x="330" y="24" width="250" height="124" rx="16" fill="#0B1220" stroke="#243049"/>
      <circle cx="366" cy="64" r="20" fill="#070B14" stroke="#5EEAD4"/>
      <g fill="none" stroke="#5EEAD4" stroke-width="1.8" stroke-linecap="round" stroke-linejoin="round" stroke-dasharray="90" stroke-dashoffset="90"><animate attributeName="stroke-dashoffset" from="90" to="0" dur="1.4s" begin="0.5s" fill="freeze"/><use xlink:href="#i-build" x="355" y="53" width="22" height="22"/></g>
      <text x="398" y="60" fill="#5EEAD4" font-size="10" letter-spacing="2.5" font-weight="700">XCELERAN (USA)</text>
      <text x="398" y="82" fill="#F8FAFC" font-size="15">Director of Engineering</text>
      <text x="354" y="124" fill="#8B9BB4" font-size="12">SaaS  |  Fintech  |  Franchise ERP</text>
    </g>

    <g opacity="0"><animate attributeName="opacity" from="0" to="1" dur="0.7s" begin="0.5s" fill="freeze"/>
      <rect x="620" y="24" width="250" height="124" rx="16" fill="#0B1220" stroke="#243049"/>
      <circle cx="656" cy="64" r="20" fill="#070B14" stroke="#A78BFA"/>
      <g fill="none" stroke="#A78BFA" stroke-width="1.8" stroke-linecap="round" stroke-linejoin="round" stroke-dasharray="90" stroke-dashoffset="90"><animate attributeName="stroke-dashoffset" from="90" to="0" dur="1.4s" begin="0.7s" fill="freeze"/><use xlink:href="#i-brief" x="645" y="53" width="22" height="22"/></g>
      <text x="688" y="60" fill="#A78BFA" font-size="10" letter-spacing="2.5" font-weight="700">NAVANA / TOYOTA</text>
      <text x="688" y="82" fill="#F8FAFC" font-size="15">Asst. Manager - Developer</text>
      <text x="644" y="124" fill="#8B9BB4" font-size="12">Inventory  |  Booking  |  Reporting</text>
    </g>

    <g opacity="0"><animate attributeName="opacity" from="0" to="1" dur="0.7s" begin="0.7s" fill="freeze"/>
      <rect x="910" y="24" width="250" height="124" rx="16" fill="#0B1220" stroke="#243049"/>
      <circle cx="946" cy="64" r="20" fill="#070B14" stroke="#F8FAFC"/>
      <g fill="none" stroke="#F8FAFC" stroke-width="1.8" stroke-linecap="round" stroke-linejoin="round" stroke-dasharray="90" stroke-dashoffset="90"><animate attributeName="stroke-dashoffset" from="90" to="0" dur="1.4s" begin="0.9s" fill="freeze"/><use xlink:href="#i-grad" x="935" y="53" width="22" height="22"/></g>
      <text x="978" y="60" fill="#F8FAFC" font-size="10" letter-spacing="2.5" font-weight="700">EDUCATION</text>
      <text x="978" y="82" fill="#F8FAFC" font-size="15">B.Sc. in CSE</text>
      <text x="934" y="124" fill="#8B9BB4" font-size="12">Stamford University Bangladesh</text>
    </g>

    <g opacity="0"><animate attributeName="opacity" from="0" to="1" dur="0.7s" begin="0.9s" fill="freeze"/>
      <rect x="40" y="172" width="360" height="134" rx="16" fill="#0B1220" stroke="#243049"/>
      <text x="64" y="204" fill="#E8C872" font-size="10" letter-spacing="2.5" font-weight="700">CORE STACK</text>
      <text x="64" y="232" fill="#E8EEF8" font-size="12">C# / .NET</text>
      <rect x="200" y="226" width="176" height="6" rx="3" fill="#1B2536"/><rect x="200" y="226" width="0" height="6" rx="3" fill="#E8C872"><animate attributeName="width" from="0" to="176" dur="1.2s" begin="1.1s" fill="freeze"/></rect>
      <text x="64" y="258" fill="#E8EEF8" font-size="12">SQL Server</text>
      <rect x="200" y="252" width="176" height="6" rx="3" fill="#1B2536"/><rect x="200" y="252" width="0" height="6" rx="3" fill="#E8C872"><animate attributeName="width" from="0" to="167" dur="1.2s" begin="1.25s" fill="freeze"/></rect>
      <text x="64" y="284" fill="#E8EEF8" font-size="12">Angular / TypeScript</text>
      <rect x="200" y="278" width="176" height="6" rx="3" fill="#1B2536"/><rect x="200" y="278" width="0" height="6" rx="3" fill="#E8C872"><animate attributeName="width" from="0" to="158" dur="1.2s" begin="1.4s" fill="freeze"/></rect>
    </g>

    <g opacity="0"><animate attributeName="opacity" from="0" to="1" dur="0.7s" begin="1.1s" fill="freeze"/>
      <rect x="420" y="172" width="360" height="134" rx="16" fill="#0B1220" stroke="#243049"/>
      <text x="444" y="204" fill="#5EEAD4" font-size="10" letter-spacing="2.5" font-weight="700">INTEGRATIONS</text>
      <text x="444" y="232" fill="#E8EEF8" font-size="12">QuickBooks API</text>
      <rect x="580" y="226" width="176" height="6" rx="3" fill="#1B2536"/><rect x="580" y="226" width="0" height="6" rx="3" fill="#5EEAD4"><animate attributeName="width" from="0" to="150" dur="1.2s" begin="1.3s" fill="freeze"/></rect>
      <text x="444" y="258" fill="#E8EEF8" font-size="12">Payments (Clearent)</text>
      <rect x="580" y="252" width="176" height="6" rx="3" fill="#1B2536"/><rect x="580" y="252" width="0" height="6" rx="3" fill="#5EEAD4"><animate attributeName="width" from="0" to="141" dur="1.2s" begin="1.45s" fill="freeze"/></rect>
      <text x="444" y="284" fill="#E8EEF8" font-size="12">Azure / IIS</text>
      <rect x="580" y="278" width="176" height="6" rx="3" fill="#1B2536"/><rect x="580" y="278" width="0" height="6" rx="3" fill="#5EEAD4"><animate attributeName="width" from="0" to="141" dur="1.2s" begin="1.6s" fill="freeze"/></rect>
    </g>

    <g opacity="0"><animate attributeName="opacity" from="0" to="1" dur="0.7s" begin="1.3s" fill="freeze"/>
      <rect x="800" y="172" width="360" height="134" rx="16" fill="#0B1220" stroke="#243049"/>
      <text x="824" y="204" fill="#A78BFA" font-size="10" letter-spacing="2.5" font-weight="700">LEADERSHIP</text>
      <text x="824" y="232" fill="#E8EEF8" font-size="12">Architecture</text>
      <rect x="960" y="226" width="176" height="6" rx="3" fill="#1B2536"/><rect x="960" y="226" width="0" height="6" rx="3" fill="#A78BFA"><animate attributeName="width" from="0" to="167" dur="1.2s" begin="1.5s" fill="freeze"/></rect>
      <text x="824" y="258" fill="#E8EEF8" font-size="12">Mentoring / Review</text>
      <rect x="960" y="252" width="176" height="6" rx="3" fill="#1B2536"/><rect x="960" y="252" width="0" height="6" rx="3" fill="#A78BFA"><animate attributeName="width" from="0" to="150" dur="1.2s" begin="1.65s" fill="freeze"/></rect>
      <text x="824" y="284" fill="#E8EEF8" font-size="12">Delivery / Production</text>
      <rect x="960" y="278" width="176" height="6" rx="3" fill="#1B2536"/><rect x="960" y="278" width="0" height="6" rx="3" fill="#A78BFA"><animate attributeName="width" from="0" to="167" dur="1.2s" begin="1.8s" fill="freeze"/></rect>
    </g>
  </g>
</svg>
